<svg width="1280" height="320" viewBox="0 0 1280 320" xmlns="http://www.w3.org/2000/svg" role="img" aria-label="vramfit banner">
  <defs>
    <linearGradient id="bg" x1="0" y1="0" x2="1" y2="1">
      <stop offset="0" stop-color="#0b1120"/>
      <stop offset="0.55" stop-color="#0e1628"/>
      <stop offset="1" stop-color="#101b30"/>
    </linearGradient>
    <linearGradient id="kv" gradientUnits="userSpaceOnUse" x1="0" y1="230" x2="0" y2="200">
      <stop offset="0" stop-color="#38bdf8"/>
      <stop offset="1" stop-color="#a78bfa"/>
    </linearGradient>
    <linearGradient id="over" gradientUnits="userSpaceOnUse" x1="0" y1="200" x2="0" y2="140">
      <stop offset="0" stop-color="#f43f5e"/>
      <stop offset="1" stop-color="#fb7185"/>
    </linearGradient>
    <linearGradient id="accent" x1="0" y1="0" x2="1" y2="0">
      <stop offset="0" stop-color="#38bdf8"/>
      <stop offset="1" stop-color="#a78bfa"/>
    </linearGradient>
  </defs>
  <rect width="1280" height="320" fill="url(#bg)"/>
  <g><rect x="64.6" y="230" width="16" height="22" rx="2" fill="#1e40af" opacity="0.28"/><rect x="64.6" y="228" width="16" height="2" rx="1" fill="url(#kv)" opacity="0.28"/><rect x="64.6" y="218" width="16" height="10" rx="2" fill="#64748b" opacity="0.28"/><rect x="89.8" y="230" width="16" height="22" rx="2" fill="#1e40af" opacity="0.32"/><rect x="89.8" y="227.8" width="16" height="2.2" rx="1.1" fill="url(#kv)" opacity="0.32"/><rect x="89.8" y="217.8" width="16" height="10" rx="2" fill="#64748b" opacity="0.32"/><rect x="115" y="230" width="16" height="22" rx="2" fill="#1e40af" opacity="0.35"/><rect x="115" y="227.6" width="16" height="2.4" rx="1.2" fill="url(#kv)" opacity="0.35"/><rect x="115" y="217.6" width="16" height="10" rx="2" fill="#64748b" opacity="0.35"/><rect x="140.3" y="230" width="16" height="22" rx="2" fill="#1e40af" opacity="0.37"/><rect x="140.3" y="227.4" width="16" height="2.6" rx="1.3" fill="url(#kv)" opacity="0.37"/><rect x="140.3" y="217.4" width="16" height="10" rx="2" fill="#64748b" opacity="0.37"/><rect x="165.5" y="230" width="16" height="22" rx="2" fill="#1e40af" opacity="0.40"/><rect x="165.5" y="227.2" width="16" height="2.8" rx="1.4" fill="url(#kv)" opacity="0.40"/><rect x="165.5" y="217.2" width="16" height="10" rx="2" fill="#64748b" opacity="0.40"/><rect x="190.7" y="230" width="16" height="22" rx="2" fill="#1e40af" opacity="0.42"/><rect x="190.7" y="227" width="16" height="3" rx="1.5" fill="url(#kv)" opacity="0.42"/><rect x="190.7" y="217" width="16" height="10" rx="2" fill="#64748b" opacity="0.42"/><rect x="215.9" y="230" width="16" height="22" rx="2" fill="#1e40af" opacity="0.44"/><rect x="215.9" y="226.7" width="16" height="3.3" rx="1.6" fill="url(#kv)" opacity="0.44"/><rect x="215.9" y="216.7" width="16" height="10" rx="2" fill="#64748b" opacity="0.44"/><rect x="241.1" y="230" width="16" height="22" rx="2" fill="#1e40af" opacity="0.46"/><rect x="241.1" y="226.4" width="16" height="3.6" rx="1.8" fill="url(#kv)" opacity="0.46"/><rect x="241.1" y="216.4" width="16" height="10" rx="2" fill="#64748b" opacity="0.46"/><rect x="266.3" y="230" width="16" height="22" rx="2" fill="#1e40af" opacity="0.48"/><rect x="266.3" y="226.1" width="16" height="3.9" rx="1.9" fill="url(#kv)" opacity="0.48"/><rect x="266.3" y="216.1" width="16" height="10" rx="2" fill="#64748b" opacity="0.48"/><rect x="291.6" y="230" width="16" height="22" rx="2" fill="#1e40af" opacity="0.50"/><rect x="291.6" y="225.8" width="16" height="4.2" rx="2" fill="url(#kv)" opacity="0.50"/><rect x="291.6" y="215.8" width="16" height="10" rx="2" fill="#64748b" opacity="0.50"/><rect x="316.8" y="230" width="16" height="22" rx="2" fill="#1e40af" opacity="0.51"/><rect x="316.8" y="225.5" width="16" height="4.5" rx="2" fill="url(#kv)" opacity="0.51"/><rect x="316.8" y="215.5" width="16" height="10" rx="2" fill="#64748b" opacity="0.51"/><rect x="342" y="230" width="16" height="22" rx="2" fill="#1e40af" opacity="0.53"/><rect x="342" y="225.1" width="16" height="4.9" rx="2" fill="url(#kv)" opacity="0.53"/><rect x="342" y="215.1" width="16" height="10" rx="2" fill="#64748b" opacity="0.53"/><rect x="367.2" y="230" width="16" height="22" rx="2" fill="#1e40af" opacity="0.55"/><rect x="367.2" y="224.7" width="16" height="5.3" rx="2" fill="url(#kv)" opacity="0.55"/><rect x="367.2" y="214.7" width="16" height="10" rx="2" fill="#64748b" opacity="0.55"/><rect x="392.4" y="230" width="16" height="22" rx="2" fill="#1e40af" opacity="0.56"/><rect x="392.4" y="224.2" width="16" height="5.8" rx="2" fill="url(#kv)" opacity="0.56"/><rect x="392.4" y="214.2" width="16" height="10" rx="2" fill="#64748b" opacity="0.56"/><rect x="417.7" y="230" width="16" height="22" rx="2" fill="#1e40af" opacity="0.58"/><rect x="417.7" y="223.7" width="16" height="6.3" rx="2" fill="url(#kv)" opacity="0.58"/><rect x="417.7" y="213.7" width="16" height="10" rx="2" fill="#64748b" opacity="0.58"/><rect x="442.9" y="230" width="16" height="22" rx="2" fill="#1e40af" opacity="0.60"/><rect x="442.9" y="223.2" width="16" height="6.8" rx="2" fill="url(#kv)" opacity="0.60"/><rect x="442.9" y="213.2" width="16" height="10" rx="2" fill="#64748b" opacity="0.60"/><rect x="468.1" y="230" width="16" height="22" rx="2" fill="#1e40af" opacity="0.61"/><rect x="468.1" y="222.6" width="16" height="7.4" rx="2" fill="url(#kv)" opacity="0.61"/><rect x="468.1" y="212.6" width="16" height="10" rx="2" fill="#64748b" opacity="0.61"/><rect x="493.3" y="230" width="16" height="22" rx="2" fill="#1e40af" opacity="0.63"/><rect x="493.3" y="221.9" width="16" height="8.1" rx="2" fill="url(#kv)" opacity="0.63"/><rect x="493.3" y="211.9" width="16" height="10" rx="2" fill="#64748b" opacity="0.63"/><rect x="518.5" y="230" width="16" height="22" rx="2" fill="#1e40af" opacity="0.64"/><rect x="518.5" y="221.3" width="16" height="8.7" rx="2" fill="url(#kv)" opacity="0.64"/><rect x="518.5" y="211.3" width="16" height="10" rx="2" fill="#64748b" opacity="0.64"/><rect x="543.7" y="230" width="16" height="22" rx="2" fill="#1e40af" opacity="0.66"/><rect x="543.7" y="220.5" width="16" height="9.5" rx="2" fill="url(#kv)" opacity="0.66"/><rect x="543.7" y="210.5" width="16" height="10" rx="2" fill="#64748b" opacity="0.66"/><rect x="569" y="230" width="16" height="22" rx="2" fill="#1e40af" opacity="0.67"/><rect x="569" y="219.7" width="16" height="10.3" rx="2" fill="url(#kv)" opacity="0.67"/><rect x="569" y="209.7" width="16" height="10" rx="2" fill="#64748b" opacity="0.67"/><rect x="594.2" y="230" width="16" height="22" rx="2" fill="#1e40af" opacity="0.69"/><rect x="594.2" y="218.8" width="16" height="11.2" rx="2" fill="url(#kv)" opacity="0.69"/><rect x="594.2" y="208.8" width="16" height="10" rx="2" fill="#64748b" opacity="0.69"/><rect x="619.4" y="230" width="16" height="22" rx="2" fill="#1e40af" opacity="0.70"/><rect x="619.4" y="217.9" width="16" height="12.1" rx="2" fill="url(#kv)" opacity="0.70"/><rect x="619.4" y="207.9" width="16" height="10" rx="2" fill="#64748b" opacity="0.70"/><rect x="644.6" y="230" width="16" height="22" rx="2" fill="#1e40af" opacity="0.72"/><rect x="644.6" y="216.8" width="16" height="13.2" rx="2" fill="url(#kv)" opacity="0.72"/><rect x="644.6" y="206.8" width="16" height="10" rx="2" fill="#64748b" opacity="0.72"/><rect x="669.8" y="230" width="16" height="22" rx="2" fill="#1e40af" opacity="0.73"/><rect x="669.8" y="215.7" width="16" height="14.3" rx="2" fill="url(#kv)" opacity="0.73"/><rect x="669.8" y="205.7" width="16" height="10" rx="2" fill="#64748b" opacity="0.73"/><rect x="695" y="230" width="16" height="22" rx="2" fill="#1e40af" opacity="0.74"/><rect x="695" y="214.5" width="16" height="15.5" rx="2" fill="url(#kv)" opacity="0.74"/><rect x="695" y="204.5" width="16" height="10" rx="2" fill="#64748b" opacity="0.74"/><rect x="720.3" y="230" width="16" height="22" rx="2" fill="#1e40af" opacity="0.76"/><rect x="720.3" y="213.1" width="16" height="16.9" rx="2" fill="url(#kv)" opacity="0.76"/><rect x="720.3" y="203.1" width="16" height="10" rx="2" fill="#64748b" opacity="0.76"/><rect x="745.5" y="230" width="16" height="22" rx="2" fill="#1e40af" opacity="0.77"/><rect x="745.5" y="211.7" width="16" height="18.3" rx="2" fill="url(#kv)" opacity="0.77"/><rect x="745.5" y="201.7" width="16" height="10" rx="2" fill="#64748b" opacity="0.77"/><rect x="770.7" y="230" width="16" height="22" rx="2" fill="#1e40af" opacity="0.78"/><rect x="770.7" y="210.1" width="16" height="19.9" rx="2" fill="url(#kv)" opacity="0.78"/><rect x="770.7" y="200.1" width="16" height="10" rx="2" fill="#64748b" opacity="0.78"/><rect x="795.9" y="230" width="16" height="22" rx="2" fill="#1e40af" opacity="0.80"/><rect x="795.9" y="208.4" width="16" height="21.6" rx="2" fill="url(#kv)" opacity="0.80"/><rect x="795.9" y="200" width="16" height="8.4" rx="2" fill="#64748b" opacity="0.80"/><rect x="795.9" y="198.4" width="16" height="1.6" rx="0.8" fill="url(#over)" opacity="0.80"/><rect x="821.1" y="230" width="16" height="22" rx="2" fill="#1e40af" opacity="0.81"/><rect x="821.1" y="206.6" width="16" height="23.4" rx="2" fill="url(#kv)" opacity="0.81"/><rect x="821.1" y="200" width="16" height="6.6" rx="2" fill="#64748b" opacity="0.81"/><rect x="821.1" y="196.6" width="16" height="3.4" rx="1.7" fill="url(#over)" opacity="0.81"/><rect x="846.3" y="230" width="16" height="22" rx="2" fill="#1e40af" opacity="0.82"/><rect x="846.3" y="204.6" width="16" height="25.4" rx="2" fill="url(#kv)" opacity="0.82"/><rect x="846.3" y="200" width="16" height="4.6" rx="2" fill="#64748b" opacity="0.82"/><rect x="846.3" y="194.6" width="16" height="5.4" rx="2" fill="url(#over)" opacity="0.82"/><rect x="871.6" y="230" width="16" height="22" rx="2" fill="#1e40af" opacity="0.84"/><rect x="871.6" y="202.4" width="16" height="27.6" rx="2" fill="url(#kv)" opacity="0.84"/><rect x="871.6" y="200" width="16" height="2.4" rx="1.2" fill="#64748b" opacity="0.84"/><rect x="871.6" y="192.4" width="16" height="7.6" rx="2" fill="url(#over)" opacity="0.84"/><rect x="896.8" y="230" width="16" height="22" rx="2" fill="#1e40af" opacity="0.85"/><rect x="896.8" y="200.1" width="16" height="29.9" rx="2" fill="url(#kv)" opacity="0.85"/><rect x="896.8" y="200" width="16" height="0.1" rx="0" fill="#64748b" opacity="0.85"/><rect x="896.8" y="190.1" width="16" height="9.9" rx="2" fill="url(#over)" opacity="0.85"/><rect x="922" y="230" width="16" height="22" rx="2" fill="#1e40af" opacity="0.86"/><rect x="922" y="200" width="16" height="30" rx="2" fill="url(#kv)" opacity="0.86"/><rect x="922" y="197.5" width="16" height="2.5" rx="1.2" fill="url(#over)" opacity="0.86"/><rect x="922" y="187.5" width="16" height="10" rx="2" fill="url(#over)" opacity="0.85"/><rect x="947.2" y="230" width="16" height="22" rx="2" fill="#1e40af" opacity="0.88"/><rect x="947.2" y="200" width="16" height="30" rx="2" fill="url(#kv)" opacity="0.88"/><rect x="947.2" y="194.8" width="16" height="5.2" rx="2" fill="url(#over)" opacity="0.88"/><rect x="947.2" y="184.8" width="16" height="10" rx="2" fill="url(#over)" opacity="0.85"/><rect x="972.4" y="230" width="16" height="22" rx="2" fill="#1e40af" opacity="0.89"/><rect x="972.4" y="200" width="16" height="30" rx="2" fill="url(#kv)" opacity="0.89"/><rect x="972.4" y="191.7" width="16" height="8.3" rx="2" fill="url(#over)" opacity="0.89"/><rect x="972.4" y="181.7" width="16" height="10" rx="2" fill="url(#over)" opacity="0.85"/><rect x="997.7" y="230" width="16" height="22" rx="2" fill="#1e40af" opacity="0.90"/><rect x="997.7" y="200" width="16" height="30" rx="2" fill="url(#kv)" opacity="0.90"/><rect x="997.7" y="188.5" width="16" height="11.5" rx="2" fill="url(#over)" opacity="0.90"/><rect x="997.7" y="178.5" width="16" height="10" rx="2" fill="url(#over)" opacity="0.85"/><rect x="1022.9" y="230" width="16" height="22" rx="2" fill="#1e40af" opacity="0.91"/><rect x="1022.9" y="200" width="16" height="30" rx="2" fill="url(#kv)" opacity="0.91"/><rect x="1022.9" y="184.9" width="16" height="15.1" rx="2" fill="url(#over)" opacity="0.91"/><rect x="1022.9" y="174.9" width="16" height="10" rx="2" fill="url(#over)" opacity="0.85"/><rect x="1048.1" y="230" width="16" height="22" rx="2" fill="#1e40af" opacity="0.93"/><rect x="1048.1" y="200" width="16" height="30" rx="2" fill="url(#kv)" opacity="0.93"/><rect x="1048.1" y="181.1" width="16" height="18.9" rx="2" fill="url(#over)" opacity="0.93"/><rect x="1048.1" y="171.1" width="16" height="10" rx="2" fill="url(#over)" opacity="0.85"/><rect x="1073.3" y="230" width="16" height="22" rx="2" fill="#1e40af" opacity="0.94"/><rect x="1073.3" y="200" width="16" height="30" rx="2" fill="url(#kv)" opacity="0.94"/><rect x="1073.3" y="176.9" width="16" height="23.1" rx="2" fill="url(#over)" opacity="0.94"/><rect x="1073.3" y="166.9" width="16" height="10" rx="2" fill="url(#over)" opacity="0.85"/><rect x="1098.5" y="230" width="16" height="22" rx="2" fill="#1e40af" opacity="0.95"/><rect x="1098.5" y="200" width="16" height="30" rx="2" fill="url(#kv)" opacity="0.95"/><rect x="1098.5" y="172.4" width="16" height="27.6" rx="2" fill="url(#over)" opacity="0.95"/><rect x="1098.5" y="162.4" width="16" height="10" rx="2" fill="url(#over)" opacity="0.85"/><rect x="1123.7" y="230" width="16" height="22" rx="2" fill="#1e40af" opacity="0.96"/><rect x="1123.7" y="200" width="16" height="30" rx="2" fill="url(#kv)" opacity="0.96"/><rect x="1123.7" y="167.4" width="16" height="32.6" rx="2" fill="url(#over)" opacity="0.96"/><rect x="1123.7" y="157.4" width="16" height="10" rx="2" fill="url(#over)" opacity="0.85"/><rect x="1149" y="230" width="16" height="22" rx="2" fill="#1e40af" opacity="0.98"/><rect x="1149" y="200" width="16" height="30" rx="2" fill="url(#kv)" opacity="0.98"/><rect x="1149" y="162.1" width="16" height="37.9" rx="2" fill="url(#over)" opacity="0.98"/><rect x="1149" y="152.1" width="16" height="10" rx="2" fill="url(#over)" opacity="0.85"/><rect x="1174.2" y="230" width="16" height="22" rx="2" fill="#1e40af" opacity="0.99"/><rect x="1174.2" y="200" width="16" height="30" rx="2" fill="url(#kv)" opacity="0.99"/><rect x="1174.2" y="156.3" width="16" height="43.7" rx="2" fill="url(#over)" opacity="0.99"/><rect x="1174.2" y="146.3" width="16" height="10" rx="2" fill="url(#over)" opacity="0.85"/><rect x="1199.4" y="230" width="16" height="22" rx="2" fill="#1e40af" opacity="1.00"/><rect x="1199.4" y="200" width="16" height="30" rx="2" fill="url(#kv)" opacity="1.00"/><rect x="1199.4" y="150" width="16" height="50" rx="2" fill="url(#over)" opacity="1.00"/><rect x="1199.4" y="140" width="16" height="10" rx="2" fill="url(#over)" opacity="0.85"/></g>
  <g>
    <line x1="48" y1="252.5" x2="1232" y2="252.5" stroke="#243350" stroke-width="1"/>
    <line x1="48" y1="200" x2="1232" y2="200" stroke="#9fb0cc" stroke-width="1.5" stroke-dasharray="7 8" opacity="0.6"/>
    <line x1="48" y1="200" x2="76" y2="200" stroke="#9fb0cc" stroke-width="1.5" opacity="0.85"/>
    <line x1="1204" y1="200" x2="1232" y2="200" stroke="#9fb0cc" stroke-width="1.5" opacity="0.85"/>
    <line x1="780.9" y1="252" x2="780.9" y2="200" stroke="#38bdf8" stroke-width="1.5" opacity="0.75"/>
    <circle cx="780.9" cy="200" r="9" fill="#38bdf8" opacity="0.16"/>
    <circle cx="780.9" cy="200" r="3.6" fill="#e6edf7"/>
  </g>
  <text x="640" y="92" text-anchor="middle" font-family="ui-monospace,SFMono-Regular,Menlo,Consolas,monospace" font-size="54" font-weight="700" fill="#e6edf7" letter-spacing="1">vram<tspan fill="url(#accent)">fit</tspan></text>
  <text x="640" y="128" text-anchor="middle" font-family="ui-monospace,SFMono-Regular,Menlo,Consolas,monospace" font-size="17" fill="#8b98ad" letter-spacing="2">WILL THIS MODEL FIT · HOW FAST · LOCAL LLM CAPACITY PLANNING</text>
  <text x="640" y="290" text-anchor="middle" font-family="ui-monospace,SFMono-Regular,Menlo,Consolas,monospace" font-size="13" fill="#5b6b82">GQA / MLA KV cache · GGUF effective bits-per-weight · MoE active params · bandwidth-bound decode · llama.cpp layer offload</text>
</svg>
